<mxfile host="app.diagrams.net" agent="Mozilla/5.0 (Windows NT 10.0; Win64; x64) AppleWebKit/537.36 (KHTML, like Gecko) Chrome/140.0.0.0 Safari/537.36" version="28.2.5">
  <diagram name="PÃ¡gina-1" id="w3GnvieWpGSpXdtG4ZqZ">
    <mxGraphModel dx="2222" dy="827" grid="1" gridSize="10" guides="1" tooltips="1" connect="1" arrows="1" fold="1" page="1" pageScale="1" pageWidth="827" pageHeight="1169" math="0" shadow="0">
      <root>
        <mxCell id="0" />
        <mxCell id="1" parent="0" />
        <mxCell id="YFqH8u_28aZNQsZ5rYLh-1" value="&lt;span id=&quot;docs-internal-guid-4be602a2-7fff-62ae-e395-808120470c4e&quot;&gt;&lt;span style=&quot;font-size: 12pt; font-family: Calibri, sans-serif; background-color: transparent; font-variant-numeric: normal; font-variant-east-asian: normal; font-variant-alternates: normal; font-variant-position: normal; font-variant-emoji: normal; vertical-align: baseline; white-space-collapse: preserve;&quot;&gt;FILME&lt;/span&gt;&lt;/span&gt;" style="rounded=0;whiteSpace=wrap;html=1;" vertex="1" parent="1">
          <mxGeometry x="10" y="110" width="120" height="60" as="geometry" />
        </mxCell>
        <mxCell id="YFqH8u_28aZNQsZ5rYLh-2" value="ATOR" style="rounded=0;whiteSpace=wrap;html=1;" vertex="1" parent="1">
          <mxGeometry x="-330" y="330" width="120" height="60" as="geometry" />
        </mxCell>
        <mxCell id="YFqH8u_28aZNQsZ5rYLh-5" value="&lt;span id=&quot;docs-internal-guid-6ea16260-7fff-b192-2c63-db768fd08bc2&quot;&gt;&lt;span style=&quot;font-size: 12pt; font-family: Calibri, sans-serif; background-color: transparent; font-variant-numeric: normal; font-variant-east-asian: normal; font-variant-alternates: normal; font-variant-position: normal; font-variant-emoji: normal; text-decoration-line: underline; text-decoration-skip-ink: none; vertical-align: baseline; white-space-collapse: preserve;&quot;&gt;Codigo&lt;/span&gt;&lt;/span&gt;" style="ellipse;whiteSpace=wrap;html=1;align=center;" vertex="1" parent="1">
          <mxGeometry x="-110" y="120" width="100" height="40" as="geometry" />
        </mxCell>
        <mxCell id="YFqH8u_28aZNQsZ5rYLh-6" value="&lt;span id=&quot;docs-internal-guid-283317db-7fff-c2ea-7b62-10bc29e698ed&quot;&gt;&lt;span style=&quot;font-size: 12pt; font-family: Calibri, sans-serif; background-color: transparent; font-variant-numeric: normal; font-variant-east-asian: normal; font-variant-alternates: normal; font-variant-position: normal; font-variant-emoji: normal; vertical-align: baseline; white-space-collapse: preserve;&quot;&gt;Titulo&lt;/span&gt;&lt;/span&gt;" style="ellipse;whiteSpace=wrap;html=1;align=center;" vertex="1" parent="1">
          <mxGeometry x="-110" y="50" width="100" height="40" as="geometry" />
        </mxCell>
        <mxCell id="YFqH8u_28aZNQsZ5rYLh-7" value="&lt;span id=&quot;docs-internal-guid-4bc652d8-7fff-ebd3-a9a2-86fb35e63974&quot;&gt;&lt;span style=&quot;font-size: 12pt; font-family: Calibri, sans-serif; background-color: transparent; font-variant-numeric: normal; font-variant-east-asian: normal; font-variant-alternates: normal; font-variant-position: normal; font-variant-emoji: normal; vertical-align: baseline; white-space-collapse: preserve;&quot;&gt;Ano&lt;/span&gt;&lt;/span&gt;" style="ellipse;whiteSpace=wrap;html=1;align=center;" vertex="1" parent="1">
          <mxGeometry x="20" y="50" width="100" height="40" as="geometry" />
        </mxCell>
        <mxCell id="YFqH8u_28aZNQsZ5rYLh-8" value="&lt;span id=&quot;docs-internal-guid-ac57ef4f-7fff-fcd2-d103-fc6a1555ad63&quot;&gt;&lt;span style=&quot;font-size: 12pt; font-family: Calibri, sans-serif; background-color: transparent; font-variant-numeric: normal; font-variant-east-asian: normal; font-variant-alternates: normal; font-variant-position: normal; font-variant-emoji: normal; vertical-align: baseline; white-space-collapse: preserve;&quot;&gt;Direcao&lt;/span&gt;&lt;/span&gt;" style="ellipse;whiteSpace=wrap;html=1;align=center;" vertex="1" parent="1">
          <mxGeometry x="150" y="50" width="100" height="40" as="geometry" />
        </mxCell>
        <mxCell id="YFqH8u_28aZNQsZ5rYLh-10" value="" style="endArrow=none;html=1;rounded=0;entryX=1;entryY=0.5;entryDx=0;entryDy=0;exitX=0;exitY=0.5;exitDx=0;exitDy=0;" edge="1" parent="1" source="YFqH8u_28aZNQsZ5rYLh-1" target="YFqH8u_28aZNQsZ5rYLh-5">
          <mxGeometry width="50" height="50" relative="1" as="geometry">
            <mxPoint x="10" y="140" as="sourcePoint" />
            <mxPoint x="60" y="90" as="targetPoint" />
          </mxGeometry>
        </mxCell>
        <mxCell id="YFqH8u_28aZNQsZ5rYLh-11" value="" style="endArrow=none;html=1;rounded=0;entryX=1;entryY=1;entryDx=0;entryDy=0;exitX=0;exitY=0;exitDx=0;exitDy=0;" edge="1" parent="1" source="YFqH8u_28aZNQsZ5rYLh-1" target="YFqH8u_28aZNQsZ5rYLh-6">
          <mxGeometry width="50" height="50" relative="1" as="geometry">
            <mxPoint x="10" y="110" as="sourcePoint" />
            <mxPoint x="60" y="60" as="targetPoint" />
          </mxGeometry>
        </mxCell>
        <mxCell id="YFqH8u_28aZNQsZ5rYLh-12" value="" style="endArrow=none;html=1;rounded=0;entryX=0.5;entryY=1;entryDx=0;entryDy=0;exitX=0.5;exitY=0;exitDx=0;exitDy=0;" edge="1" parent="1" source="YFqH8u_28aZNQsZ5rYLh-1" target="YFqH8u_28aZNQsZ5rYLh-7">
          <mxGeometry width="50" height="50" relative="1" as="geometry">
            <mxPoint x="100" y="100" as="sourcePoint" />
            <mxPoint x="120" y="60" as="targetPoint" />
          </mxGeometry>
        </mxCell>
        <mxCell id="YFqH8u_28aZNQsZ5rYLh-13" value="" style="endArrow=none;html=1;rounded=0;entryX=0;entryY=1;entryDx=0;entryDy=0;" edge="1" parent="1" target="YFqH8u_28aZNQsZ5rYLh-8">
          <mxGeometry width="50" height="50" relative="1" as="geometry">
            <mxPoint x="130" y="110" as="sourcePoint" />
            <mxPoint x="180" y="60" as="targetPoint" />
          </mxGeometry>
        </mxCell>
        <mxCell id="YFqH8u_28aZNQsZ5rYLh-14" value="&lt;span id=&quot;docs-internal-guid-d8a7e255-7fff-67de-f666-e1afaeb04ac7&quot;&gt;&lt;span style=&quot;font-size: 12pt; font-family: Calibri, sans-serif; background-color: transparent; font-variant-numeric: normal; font-variant-east-asian: normal; font-variant-alternates: normal; font-variant-position: normal; font-variant-emoji: normal; text-decoration-skip-ink: none; vertical-align: baseline; white-space-collapse: preserve;&quot;&gt;NContribuinte&lt;/span&gt;&lt;/span&gt;" style="ellipse;whiteSpace=wrap;html=1;align=center;fontStyle=4;" vertex="1" parent="1">
          <mxGeometry x="-455" y="400" width="110" height="40" as="geometry" />
        </mxCell>
        <mxCell id="YFqH8u_28aZNQsZ5rYLh-16" value="&lt;span style=&quot;font-family: Calibri, sans-serif; font-size: 16px; white-space-collapse: preserve;&quot;&gt;Idade&lt;/span&gt;" style="ellipse;whiteSpace=wrap;html=1;align=center;dashed=1;" vertex="1" parent="1">
          <mxGeometry x="-210" y="460" width="100" height="40" as="geometry" />
        </mxCell>
        <mxCell id="YFqH8u_28aZNQsZ5rYLh-18" value="&lt;span id=&quot;docs-internal-guid-3d9c7070-7fff-bfc0-36b8-a34449b90592&quot;&gt;&lt;span style=&quot;font-size: 12pt; font-family: Calibri, sans-serif; background-color: transparent; font-variant-numeric: normal; font-variant-east-asian: normal; font-variant-alternates: normal; font-variant-position: normal; font-variant-emoji: normal; vertical-align: baseline; white-space-collapse: preserve;&quot;&gt;DataNascimento&lt;/span&gt;&lt;/span&gt;" style="ellipse;whiteSpace=wrap;html=1;align=center;" vertex="1" parent="1">
          <mxGeometry x="-330" y="400" width="120" height="40" as="geometry" />
        </mxCell>
        <mxCell id="YFqH8u_28aZNQsZ5rYLh-19" value="&lt;span id=&quot;docs-internal-guid-b3f4353b-7fff-3b04-fd22-fbf1855b6f23&quot;&gt;&lt;span style=&quot;font-size: 12pt; font-family: Calibri, sans-serif; background-color: transparent; font-variant-numeric: normal; font-variant-east-asian: normal; font-variant-alternates: normal; font-variant-position: normal; font-variant-emoji: normal; vertical-align: baseline; white-space-collapse: preserve;&quot;&gt;Salario&lt;/span&gt;&lt;/span&gt;" style="ellipse;whiteSpace=wrap;html=1;align=center;" vertex="1" parent="1">
          <mxGeometry x="-450" y="270" width="100" height="40" as="geometry" />
        </mxCell>
        <mxCell id="YFqH8u_28aZNQsZ5rYLh-20" value="&lt;span id=&quot;docs-internal-guid-b3f4353b-7fff-3b04-fd22-fbf1855b6f23&quot;&gt;&lt;span style=&quot;font-size: 12pt; font-family: Calibri, sans-serif; background-color: transparent; font-variant-numeric: normal; font-variant-east-asian: normal; font-variant-alternates: normal; font-variant-position: normal; font-variant-emoji: normal; vertical-align: baseline; white-space-collapse: preserve;&quot;&gt;Nome&lt;/span&gt;&lt;/span&gt;" style="ellipse;whiteSpace=wrap;html=1;align=center;" vertex="1" parent="1">
          <mxGeometry x="-450" y="340" width="100" height="40" as="geometry" />
        </mxCell>
        <mxCell id="YFqH8u_28aZNQsZ5rYLh-21" value="" style="endArrow=none;dashed=1;html=1;rounded=0;entryX=1;entryY=1;entryDx=0;entryDy=0;exitX=0;exitY=0;exitDx=0;exitDy=0;" edge="1" parent="1" source="YFqH8u_28aZNQsZ5rYLh-16" target="YFqH8u_28aZNQsZ5rYLh-2">
          <mxGeometry width="50" height="50" relative="1" as="geometry">
            <mxPoint x="-180" y="410" as="sourcePoint" />
            <mxPoint x="-130" y="360" as="targetPoint" />
          </mxGeometry>
        </mxCell>
        <mxCell id="YFqH8u_28aZNQsZ5rYLh-22" value="" style="endArrow=none;html=1;rounded=0;entryX=0;entryY=0.5;entryDx=0;entryDy=0;exitX=1;exitY=0.5;exitDx=0;exitDy=0;" edge="1" parent="1" source="YFqH8u_28aZNQsZ5rYLh-20" target="YFqH8u_28aZNQsZ5rYLh-2">
          <mxGeometry width="50" height="50" relative="1" as="geometry">
            <mxPoint x="-350" y="320" as="sourcePoint" />
            <mxPoint x="-300" y="310" as="targetPoint" />
          </mxGeometry>
        </mxCell>
        <mxCell id="YFqH8u_28aZNQsZ5rYLh-23" value="" style="endArrow=none;html=1;rounded=0;exitX=1;exitY=0;exitDx=0;exitDy=0;" edge="1" parent="1" source="YFqH8u_28aZNQsZ5rYLh-14">
          <mxGeometry width="50" height="50" relative="1" as="geometry">
            <mxPoint x="-380" y="430" as="sourcePoint" />
            <mxPoint x="-330" y="380" as="targetPoint" />
          </mxGeometry>
        </mxCell>
        <mxCell id="YFqH8u_28aZNQsZ5rYLh-24" value="" style="endArrow=none;html=1;rounded=0;entryX=0.5;entryY=1;entryDx=0;entryDy=0;" edge="1" parent="1" target="YFqH8u_28aZNQsZ5rYLh-2">
          <mxGeometry width="50" height="50" relative="1" as="geometry">
            <mxPoint x="-270" y="400" as="sourcePoint" />
            <mxPoint x="-220" y="350" as="targetPoint" />
          </mxGeometry>
        </mxCell>
        <mxCell id="YFqH8u_28aZNQsZ5rYLh-25" value="" style="endArrow=none;html=1;rounded=0;exitX=1;exitY=1;exitDx=0;exitDy=0;" edge="1" parent="1" source="YFqH8u_28aZNQsZ5rYLh-19">
          <mxGeometry width="50" height="50" relative="1" as="geometry">
            <mxPoint x="-390" y="315" as="sourcePoint" />
            <mxPoint x="-270" y="330" as="targetPoint" />
          </mxGeometry>
        </mxCell>
        <mxCell id="YFqH8u_28aZNQsZ5rYLh-26" value="REALIZADOR" style="rounded=0;whiteSpace=wrap;html=1;" vertex="1" parent="1">
          <mxGeometry x="430" y="110" width="120" height="60" as="geometry" />
        </mxCell>
        <mxCell id="YFqH8u_28aZNQsZ5rYLh-27" value="&lt;span id=&quot;docs-internal-guid-d8a7e255-7fff-67de-f666-e1afaeb04ac7&quot;&gt;&lt;span style=&quot;font-size: 12pt; font-family: Calibri, sans-serif; background-color: transparent; font-variant-numeric: normal; font-variant-east-asian: normal; font-variant-alternates: normal; font-variant-position: normal; font-variant-emoji: normal; text-decoration-skip-ink: none; vertical-align: baseline; white-space-collapse: preserve;&quot;&gt;NContribuinte&lt;/span&gt;&lt;/span&gt;" style="ellipse;whiteSpace=wrap;html=1;align=center;fontStyle=4;" vertex="1" parent="1">
          <mxGeometry x="300" y="60" width="110" height="40" as="geometry" />
        </mxCell>
        <mxCell id="YFqH8u_28aZNQsZ5rYLh-28" value="&lt;span style=&quot;font-family: Calibri, sans-serif; font-size: 16px; white-space-collapse: preserve;&quot;&gt;Idade&lt;/span&gt;" style="ellipse;whiteSpace=wrap;html=1;align=center;dashed=1;" vertex="1" parent="1">
          <mxGeometry x="580" y="130" width="100" height="40" as="geometry" />
        </mxCell>
        <mxCell id="YFqH8u_28aZNQsZ5rYLh-29" value="&lt;span id=&quot;docs-internal-guid-3d9c7070-7fff-bfc0-36b8-a34449b90592&quot;&gt;&lt;span style=&quot;font-size: 12pt; font-family: Calibri, sans-serif; background-color: transparent; font-variant-numeric: normal; font-variant-east-asian: normal; font-variant-alternates: normal; font-variant-position: normal; font-variant-emoji: normal; vertical-align: baseline; white-space-collapse: preserve;&quot;&gt;DataNascimento&lt;/span&gt;&lt;/span&gt;" style="ellipse;whiteSpace=wrap;html=1;align=center;" vertex="1" parent="1">
          <mxGeometry x="560" y="60" width="120" height="40" as="geometry" />
        </mxCell>
        <mxCell id="YFqH8u_28aZNQsZ5rYLh-31" value="&lt;span id=&quot;docs-internal-guid-b3f4353b-7fff-3b04-fd22-fbf1855b6f23&quot;&gt;&lt;span style=&quot;font-size: 12pt; font-family: Calibri, sans-serif; background-color: transparent; font-variant-numeric: normal; font-variant-east-asian: normal; font-variant-alternates: normal; font-variant-position: normal; font-variant-emoji: normal; vertical-align: baseline; white-space-collapse: preserve;&quot;&gt;Nome&lt;/span&gt;&lt;/span&gt;" style="ellipse;whiteSpace=wrap;html=1;align=center;" vertex="1" parent="1">
          <mxGeometry x="440" y="60" width="100" height="40" as="geometry" />
        </mxCell>
        <mxCell id="YFqH8u_28aZNQsZ5rYLh-32" value="" style="endArrow=none;dashed=1;html=1;rounded=0;entryX=1;entryY=0.75;entryDx=0;entryDy=0;exitX=0;exitY=0.5;exitDx=0;exitDy=0;" edge="1" parent="1" source="YFqH8u_28aZNQsZ5rYLh-28" target="YFqH8u_28aZNQsZ5rYLh-26">
          <mxGeometry width="50" height="50" relative="1" as="geometry">
            <mxPoint x="570" y="140" as="sourcePoint" />
            <mxPoint x="535" y="170" as="targetPoint" />
          </mxGeometry>
        </mxCell>
        <mxCell id="YFqH8u_28aZNQsZ5rYLh-33" value="" style="endArrow=none;html=1;rounded=0;entryX=0.5;entryY=0;entryDx=0;entryDy=0;exitX=0.5;exitY=1;exitDx=0;exitDy=0;" edge="1" parent="1" source="YFqH8u_28aZNQsZ5rYLh-31" target="YFqH8u_28aZNQsZ5rYLh-26">
          <mxGeometry width="50" height="50" relative="1" as="geometry">
            <mxPoint x="315" y="130" as="sourcePoint" />
            <mxPoint x="365" y="120" as="targetPoint" />
          </mxGeometry>
        </mxCell>
        <mxCell id="YFqH8u_28aZNQsZ5rYLh-34" value="" style="endArrow=none;html=1;rounded=0;exitX=1;exitY=1;exitDx=0;exitDy=0;entryX=0;entryY=0.25;entryDx=0;entryDy=0;" edge="1" parent="1" source="YFqH8u_28aZNQsZ5rYLh-27" target="YFqH8u_28aZNQsZ5rYLh-26">
          <mxGeometry width="50" height="50" relative="1" as="geometry">
            <mxPoint x="285" y="240" as="sourcePoint" />
            <mxPoint x="335" y="190" as="targetPoint" />
          </mxGeometry>
        </mxCell>
        <mxCell id="YFqH8u_28aZNQsZ5rYLh-35" value="" style="endArrow=none;html=1;rounded=0;entryX=0.5;entryY=1;entryDx=0;entryDy=0;exitX=1;exitY=0.25;exitDx=0;exitDy=0;" edge="1" parent="1" target="YFqH8u_28aZNQsZ5rYLh-29" source="YFqH8u_28aZNQsZ5rYLh-26">
          <mxGeometry width="50" height="50" relative="1" as="geometry">
            <mxPoint x="550" y="140" as="sourcePoint" />
            <mxPoint x="645" y="100" as="targetPoint" />
          </mxGeometry>
        </mxCell>
        <mxCell id="YFqH8u_28aZNQsZ5rYLh-37" value="PRODUTOR" style="rounded=0;whiteSpace=wrap;html=1;" vertex="1" parent="1">
          <mxGeometry x="424" y="380" width="120" height="60" as="geometry" />
        </mxCell>
        <mxCell id="YFqH8u_28aZNQsZ5rYLh-38" value="&lt;span id=&quot;docs-internal-guid-d8a7e255-7fff-67de-f666-e1afaeb04ac7&quot;&gt;&lt;span style=&quot;font-size: 12pt; font-family: Calibri, sans-serif; background-color: transparent; font-variant-numeric: normal; font-variant-east-asian: normal; font-variant-alternates: normal; font-variant-position: normal; font-variant-emoji: normal; text-decoration-skip-ink: none; vertical-align: baseline; white-space-collapse: preserve;&quot;&gt;NContribuinte&lt;/span&gt;&lt;/span&gt;" style="ellipse;whiteSpace=wrap;html=1;align=center;fontStyle=4;" vertex="1" parent="1">
          <mxGeometry x="400" y="480" width="110" height="40" as="geometry" />
        </mxCell>
        <mxCell id="YFqH8u_28aZNQsZ5rYLh-39" value="&lt;span style=&quot;font-family: Calibri, sans-serif; font-size: 16px; white-space-collapse: preserve;&quot;&gt;Idade&lt;/span&gt;" style="ellipse;whiteSpace=wrap;html=1;align=center;dashed=1;" vertex="1" parent="1">
          <mxGeometry x="520" y="480" width="100" height="40" as="geometry" />
        </mxCell>
        <mxCell id="YFqH8u_28aZNQsZ5rYLh-40" value="&lt;span id=&quot;docs-internal-guid-3d9c7070-7fff-bfc0-36b8-a34449b90592&quot;&gt;&lt;span style=&quot;font-size: 12pt; font-family: Calibri, sans-serif; background-color: transparent; font-variant-numeric: normal; font-variant-east-asian: normal; font-variant-alternates: normal; font-variant-position: normal; font-variant-emoji: normal; vertical-align: baseline; white-space-collapse: preserve;&quot;&gt;DataNascimento&lt;/span&gt;&lt;/span&gt;" style="ellipse;whiteSpace=wrap;html=1;align=center;" vertex="1" parent="1">
          <mxGeometry x="570" y="430" width="120" height="40" as="geometry" />
        </mxCell>
        <mxCell id="YFqH8u_28aZNQsZ5rYLh-41" value="&lt;span id=&quot;docs-internal-guid-b3f4353b-7fff-3b04-fd22-fbf1855b6f23&quot;&gt;&lt;span style=&quot;font-size: 12pt; font-family: Calibri, sans-serif; background-color: transparent; font-variant-numeric: normal; font-variant-east-asian: normal; font-variant-alternates: normal; font-variant-position: normal; font-variant-emoji: normal; vertical-align: baseline; white-space-collapse: preserve;&quot;&gt;Nome&lt;/span&gt;&lt;/span&gt;" style="ellipse;whiteSpace=wrap;html=1;align=center;" vertex="1" parent="1">
          <mxGeometry x="590" y="380" width="100" height="40" as="geometry" />
        </mxCell>
        <mxCell id="YFqH8u_28aZNQsZ5rYLh-42" value="" style="endArrow=none;dashed=1;html=1;rounded=0;entryX=0.808;entryY=1.05;entryDx=0;entryDy=0;exitX=0;exitY=0;exitDx=0;exitDy=0;entryPerimeter=0;" edge="1" parent="1" source="YFqH8u_28aZNQsZ5rYLh-39" target="YFqH8u_28aZNQsZ5rYLh-37">
          <mxGeometry width="50" height="50" relative="1" as="geometry">
            <mxPoint x="564" y="410" as="sourcePoint" />
            <mxPoint x="529" y="440" as="targetPoint" />
          </mxGeometry>
        </mxCell>
        <mxCell id="YFqH8u_28aZNQsZ5rYLh-43" value="" style="endArrow=none;html=1;rounded=0;entryX=1;entryY=0.25;entryDx=0;entryDy=0;exitX=0;exitY=0.5;exitDx=0;exitDy=0;" edge="1" parent="1" source="YFqH8u_28aZNQsZ5rYLh-41" target="YFqH8u_28aZNQsZ5rYLh-37">
          <mxGeometry width="50" height="50" relative="1" as="geometry">
            <mxPoint x="309" y="400" as="sourcePoint" />
            <mxPoint x="359" y="390" as="targetPoint" />
          </mxGeometry>
        </mxCell>
        <mxCell id="YFqH8u_28aZNQsZ5rYLh-44" value="" style="endArrow=none;html=1;rounded=0;exitX=0.5;exitY=0;exitDx=0;exitDy=0;entryX=0.25;entryY=1;entryDx=0;entryDy=0;" edge="1" parent="1" source="YFqH8u_28aZNQsZ5rYLh-38" target="YFqH8u_28aZNQsZ5rYLh-37">
          <mxGeometry width="50" height="50" relative="1" as="geometry">
            <mxPoint x="279" y="510" as="sourcePoint" />
            <mxPoint x="329" y="460" as="targetPoint" />
          </mxGeometry>
        </mxCell>
        <mxCell id="YFqH8u_28aZNQsZ5rYLh-45" value="" style="endArrow=none;html=1;rounded=0;entryX=0;entryY=0;entryDx=0;entryDy=0;exitX=1;exitY=0.5;exitDx=0;exitDy=0;" edge="1" parent="1" source="YFqH8u_28aZNQsZ5rYLh-37" target="YFqH8u_28aZNQsZ5rYLh-40">
          <mxGeometry width="50" height="50" relative="1" as="geometry">
            <mxPoint x="544" y="410" as="sourcePoint" />
            <mxPoint x="639" y="370" as="targetPoint" />
          </mxGeometry>
        </mxCell>
        <mxCell id="YFqH8u_28aZNQsZ5rYLh-49" value="&lt;span id=&quot;docs-internal-guid-dafb2dc5-7fff-3ae9-6391-7d83564f65c3&quot;&gt;&lt;span style=&quot;font-size: 12pt; font-family: Calibri, sans-serif; background-color: transparent; font-variant-numeric: normal; font-variant-east-asian: normal; font-variant-alternates: normal; font-variant-position: normal; font-variant-emoji: normal; vertical-align: baseline; white-space-collapse: preserve;&quot;&gt;ORCAMENTO&lt;/span&gt;&lt;/span&gt;" style="rounded=0;whiteSpace=wrap;html=1;" vertex="1" parent="1">
          <mxGeometry x="60" y="530" width="120" height="60" as="geometry" />
        </mxCell>
        <mxCell id="YFqH8u_28aZNQsZ5rYLh-51" value="&lt;span id=&quot;docs-internal-guid-2bdf5194-7fff-dbb4-b460-94db38fc31c6&quot;&gt;&lt;span style=&quot;font-size: 12pt; font-family: Calibri, sans-serif; background-color: transparent; font-variant-numeric: normal; font-variant-east-asian: normal; font-variant-alternates: normal; font-variant-position: normal; font-variant-emoji: normal; text-decoration-line: underline; text-decoration-skip-ink: none; vertical-align: baseline; white-space-collapse: preserve;&quot;&gt;Id&lt;/span&gt;&lt;/span&gt;" style="ellipse;whiteSpace=wrap;html=1;align=center;" vertex="1" parent="1">
          <mxGeometry x="80" y="660" width="100" height="40" as="geometry" />
        </mxCell>
        <mxCell id="YFqH8u_28aZNQsZ5rYLh-52" value="&lt;span id=&quot;docs-internal-guid-cd7b3b1c-7fff-edb0-f3b7-7a44a7e0af35&quot;&gt;&lt;span style=&quot;font-size: 12pt; font-family: Calibri, sans-serif; background-color: transparent; font-variant-numeric: normal; font-variant-east-asian: normal; font-variant-alternates: normal; font-variant-position: normal; font-variant-emoji: normal; vertical-align: baseline; white-space-collapse: preserve;&quot;&gt;Valor&lt;/span&gt;&lt;/span&gt;" style="ellipse;whiteSpace=wrap;html=1;align=center;" vertex="1" parent="1">
          <mxGeometry x="-60" y="540" width="100" height="40" as="geometry" />
        </mxCell>
        <mxCell id="YFqH8u_28aZNQsZ5rYLh-53" value="&lt;span id=&quot;docs-internal-guid-8bd3117e-7fff-b6b0-f1d9-475b34474e02&quot;&gt;&lt;span style=&quot;font-size: 12pt; font-family: Calibri, sans-serif; background-color: transparent; font-variant-numeric: normal; font-variant-east-asian: normal; font-variant-alternates: normal; font-variant-position: normal; font-variant-emoji: normal; vertical-align: baseline; white-space-collapse: preserve;&quot;&gt;Aprovado?&lt;/span&gt;&lt;/span&gt;" style="ellipse;whiteSpace=wrap;html=1;align=center;" vertex="1" parent="1">
          <mxGeometry x="-60" y="660" width="100" height="40" as="geometry" />
        </mxCell>
        <mxCell id="YFqH8u_28aZNQsZ5rYLh-54" value="" style="endArrow=none;html=1;rounded=0;exitX=0.25;exitY=0;exitDx=0;exitDy=0;" edge="1" parent="1">
          <mxGeometry width="50" height="50" relative="1" as="geometry">
            <mxPoint x="120" y="590" as="sourcePoint" />
            <mxPoint x="120" y="660" as="targetPoint" />
          </mxGeometry>
        </mxCell>
        <mxCell id="YFqH8u_28aZNQsZ5rYLh-55" value="" style="endArrow=none;html=1;rounded=0;entryX=0.25;entryY=1;entryDx=0;entryDy=0;exitX=1;exitY=0;exitDx=0;exitDy=0;" edge="1" parent="1" source="YFqH8u_28aZNQsZ5rYLh-53" target="YFqH8u_28aZNQsZ5rYLh-49">
          <mxGeometry width="50" height="50" relative="1" as="geometry">
            <mxPoint x="20" y="660" as="sourcePoint" />
            <mxPoint x="70" y="610" as="targetPoint" />
          </mxGeometry>
        </mxCell>
        <mxCell id="YFqH8u_28aZNQsZ5rYLh-56" value="" style="endArrow=none;html=1;rounded=0;entryX=0;entryY=0.5;entryDx=0;entryDy=0;exitX=1;exitY=0.5;exitDx=0;exitDy=0;" edge="1" parent="1" source="YFqH8u_28aZNQsZ5rYLh-52" target="YFqH8u_28aZNQsZ5rYLh-49">
          <mxGeometry width="50" height="50" relative="1" as="geometry">
            <mxPoint x="40" y="560" as="sourcePoint" />
            <mxPoint x="90" y="510" as="targetPoint" />
          </mxGeometry>
        </mxCell>
        <mxCell id="YFqH8u_28aZNQsZ5rYLh-63" value="ENTRA_EM" style="shape=rhombus;perimeter=rhombusPerimeter;whiteSpace=wrap;html=1;align=center;" vertex="1" parent="1">
          <mxGeometry x="-180" y="220" width="120" height="60" as="geometry" />
        </mxCell>
        <mxCell id="YFqH8u_28aZNQsZ5rYLh-64" value="" style="shape=link;html=1;rounded=0;entryX=0.25;entryY=1;entryDx=0;entryDy=0;" edge="1" parent="1" target="YFqH8u_28aZNQsZ5rYLh-1">
          <mxGeometry relative="1" as="geometry">
            <mxPoint x="-60" y="250" as="sourcePoint" />
            <mxPoint x="100" y="250" as="targetPoint" />
            <Array as="points">
              <mxPoint x="40" y="250" />
            </Array>
          </mxGeometry>
        </mxCell>
        <mxCell id="YFqH8u_28aZNQsZ5rYLh-65" value="M" style="resizable=0;html=1;whiteSpace=wrap;align=right;verticalAlign=bottom;" connectable="0" vertex="1" parent="YFqH8u_28aZNQsZ5rYLh-64">
          <mxGeometry x="1" relative="1" as="geometry">
            <mxPoint x="-10" y="70" as="offset" />
          </mxGeometry>
        </mxCell>
        <mxCell id="YFqH8u_28aZNQsZ5rYLh-66" value="" style="endArrow=none;html=1;rounded=0;entryX=0;entryY=0.5;entryDx=0;entryDy=0;" edge="1" parent="1" target="YFqH8u_28aZNQsZ5rYLh-63">
          <mxGeometry relative="1" as="geometry">
            <mxPoint x="-230" y="330" as="sourcePoint" />
            <mxPoint x="-70" y="330" as="targetPoint" />
            <Array as="points">
              <mxPoint x="-230" y="250" />
            </Array>
          </mxGeometry>
        </mxCell>
        <mxCell id="YFqH8u_28aZNQsZ5rYLh-67" value="N" style="resizable=0;html=1;whiteSpace=wrap;align=right;verticalAlign=bottom;" connectable="0" vertex="1" parent="YFqH8u_28aZNQsZ5rYLh-66">
          <mxGeometry x="1" relative="1" as="geometry">
            <mxPoint x="-31" y="20" as="offset" />
          </mxGeometry>
        </mxCell>
        <mxCell id="YFqH8u_28aZNQsZ5rYLh-68" value="&lt;span id=&quot;docs-internal-guid-25f2121b-7fff-e80b-bcbc-07d72154559a&quot;&gt;&lt;span style=&quot;font-size: 12pt; font-family: Calibri, sans-serif; background-color: transparent; font-variant-numeric: normal; font-variant-east-asian: normal; font-variant-alternates: normal; font-variant-position: normal; font-variant-emoji: normal; vertical-align: baseline; white-space-collapse: preserve;&quot;&gt;REALIZA&lt;/span&gt;&lt;/span&gt;" style="shape=rhombus;perimeter=rhombusPerimeter;whiteSpace=wrap;html=1;align=center;" vertex="1" parent="1">
          <mxGeometry x="220" y="110" width="120" height="60" as="geometry" />
        </mxCell>
        <mxCell id="YFqH8u_28aZNQsZ5rYLh-69" value="" style="shape=link;html=1;rounded=0;entryX=0;entryY=0.5;entryDx=0;entryDy=0;" edge="1" parent="1" target="YFqH8u_28aZNQsZ5rYLh-68">
          <mxGeometry relative="1" as="geometry">
            <mxPoint x="130" y="140" as="sourcePoint" />
            <mxPoint x="210" y="140" as="targetPoint" />
          </mxGeometry>
        </mxCell>
        <mxCell id="YFqH8u_28aZNQsZ5rYLh-70" value="1" style="resizable=0;html=1;whiteSpace=wrap;align=right;verticalAlign=bottom;" connectable="0" vertex="1" parent="YFqH8u_28aZNQsZ5rYLh-69">
          <mxGeometry x="1" relative="1" as="geometry">
            <mxPoint x="-39" y="-10" as="offset" />
          </mxGeometry>
        </mxCell>
        <mxCell id="YFqH8u_28aZNQsZ5rYLh-71" value="" style="endArrow=none;html=1;rounded=0;exitX=1;exitY=0.5;exitDx=0;exitDy=0;" edge="1" parent="1" source="YFqH8u_28aZNQsZ5rYLh-68">
          <mxGeometry relative="1" as="geometry">
            <mxPoint x="340" y="140" as="sourcePoint" />
            <mxPoint x="430" y="140" as="targetPoint" />
          </mxGeometry>
        </mxCell>
        <mxCell id="YFqH8u_28aZNQsZ5rYLh-72" value="1" style="resizable=0;html=1;whiteSpace=wrap;align=right;verticalAlign=bottom;" connectable="0" vertex="1" parent="YFqH8u_28aZNQsZ5rYLh-71">
          <mxGeometry x="1" relative="1" as="geometry">
            <mxPoint x="-41" y="-10" as="offset" />
          </mxGeometry>
        </mxCell>
        <mxCell id="YFqH8u_28aZNQsZ5rYLh-73" value="&lt;span id=&quot;docs-internal-guid-b32ab1d8-7fff-1a3c-ef14-64d206481c82&quot;&gt;&lt;span style=&quot;font-size: 12pt; font-family: Calibri, sans-serif; background-color: transparent; font-variant-numeric: normal; font-variant-east-asian: normal; font-variant-alternates: normal; font-variant-position: normal; font-variant-emoji: normal; vertical-align: baseline; white-space-collapse: preserve;&quot;&gt;PRODUTOR_DE&lt;/span&gt;&lt;/span&gt;" style="shape=rhombus;perimeter=rhombusPerimeter;whiteSpace=wrap;html=1;align=center;" vertex="1" parent="1">
          <mxGeometry x="220" y="280" width="130" height="60" as="geometry" />
        </mxCell>
        <mxCell id="YFqH8u_28aZNQsZ5rYLh-74" value="" style="shape=link;html=1;rounded=0;exitX=0.75;exitY=1;exitDx=0;exitDy=0;entryX=0;entryY=0.5;entryDx=0;entryDy=0;" edge="1" parent="1" source="YFqH8u_28aZNQsZ5rYLh-1" target="YFqH8u_28aZNQsZ5rYLh-73">
          <mxGeometry relative="1" as="geometry">
            <mxPoint x="80" y="240" as="sourcePoint" />
            <mxPoint x="219" y="309.41" as="targetPoint" />
            <Array as="points">
              <mxPoint x="100" y="309" />
            </Array>
          </mxGeometry>
        </mxCell>
        <mxCell id="YFqH8u_28aZNQsZ5rYLh-75" value="1" style="resizable=0;html=1;whiteSpace=wrap;align=right;verticalAlign=bottom;" connectable="0" vertex="1" parent="YFqH8u_28aZNQsZ5rYLh-74">
          <mxGeometry x="1" relative="1" as="geometry">
            <mxPoint x="-99" y="-9" as="offset" />
          </mxGeometry>
        </mxCell>
        <mxCell id="YFqH8u_28aZNQsZ5rYLh-76" value="" style="endArrow=none;html=1;rounded=0;entryX=0.25;entryY=0;entryDx=0;entryDy=0;exitX=1;exitY=0.5;exitDx=0;exitDy=0;" edge="1" parent="1" source="YFqH8u_28aZNQsZ5rYLh-73" target="YFqH8u_28aZNQsZ5rYLh-37">
          <mxGeometry relative="1" as="geometry">
            <mxPoint x="360" y="280" as="sourcePoint" />
            <mxPoint x="510" y="310" as="targetPoint" />
            <Array as="points">
              <mxPoint x="454" y="310" />
            </Array>
          </mxGeometry>
        </mxCell>
        <mxCell id="YFqH8u_28aZNQsZ5rYLh-77" value="1" style="resizable=0;html=1;whiteSpace=wrap;align=right;verticalAlign=bottom;" connectable="0" vertex="1" parent="YFqH8u_28aZNQsZ5rYLh-76">
          <mxGeometry x="1" relative="1" as="geometry">
            <mxPoint x="-14" y="-40" as="offset" />
          </mxGeometry>
        </mxCell>
        <mxCell id="YFqH8u_28aZNQsZ5rYLh-78" value="&lt;span id=&quot;docs-internal-guid-dc3264e1-7fff-9309-e1ea-40267da215a2&quot;&gt;&lt;span style=&quot;font-size: 12pt; font-family: Calibri, sans-serif; background-color: transparent; font-variant-numeric: normal; font-variant-east-asian: normal; font-variant-alternates: normal; font-variant-position: normal; font-variant-emoji: normal; vertical-align: baseline; white-space-collapse: preserve;&quot;&gt;POSSUEM&lt;/span&gt;&lt;/span&gt;" style="shape=rhombus;perimeter=rhombusPerimeter;whiteSpace=wrap;html=1;align=center;" vertex="1" parent="1">
          <mxGeometry x="5" y="440" width="130" height="60" as="geometry" />
        </mxCell>
        <mxCell id="YFqH8u_28aZNQsZ5rYLh-79" value="" style="shape=link;html=1;rounded=0;exitX=0.5;exitY=0;exitDx=0;exitDy=0;entryX=0.5;entryY=1;entryDx=0;entryDy=0;" edge="1" parent="1" source="YFqH8u_28aZNQsZ5rYLh-78" target="YFqH8u_28aZNQsZ5rYLh-1">
          <mxGeometry relative="1" as="geometry">
            <mxPoint x="80" y="410" as="sourcePoint" />
            <mxPoint x="230" y="440" as="targetPoint" />
          </mxGeometry>
        </mxCell>
        <mxCell id="YFqH8u_28aZNQsZ5rYLh-80" value="1" style="resizable=0;html=1;whiteSpace=wrap;align=right;verticalAlign=bottom;" connectable="0" vertex="1" parent="YFqH8u_28aZNQsZ5rYLh-79">
          <mxGeometry x="1" relative="1" as="geometry">
            <mxPoint x="-10" y="171" as="offset" />
          </mxGeometry>
        </mxCell>
        <mxCell id="YFqH8u_28aZNQsZ5rYLh-81" value="" style="shape=link;html=1;rounded=0;exitX=0.5;exitY=0;exitDx=0;exitDy=0;" edge="1" parent="1" source="YFqH8u_28aZNQsZ5rYLh-49">
          <mxGeometry relative="1" as="geometry">
            <mxPoint x="69.41" y="630" as="sourcePoint" />
            <mxPoint x="69.41" y="500" as="targetPoint" />
            <Array as="points">
              <mxPoint x="120" y="500" />
            </Array>
          </mxGeometry>
        </mxCell>
        <mxCell id="YFqH8u_28aZNQsZ5rYLh-82" value="1" style="resizable=0;html=1;whiteSpace=wrap;align=right;verticalAlign=bottom;" connectable="0" vertex="1" parent="YFqH8u_28aZNQsZ5rYLh-81">
          <mxGeometry x="1" relative="1" as="geometry">
            <mxPoint x="66" y="20" as="offset" />
          </mxGeometry>
        </mxCell>
      </root>
    </mxGraphModel>
  </diagram>
</mxfile>
